<svg xmlns="http://www.w3.org/2000/svg" viewBox="0 0 900 500" width="1200" height="689">
  <style>
    .box { fill: #ffffff; stroke: #334155; stroke-width: 1.5; rx: 6; }
    .accent-box { fill: #f8fafc; stroke: #64748b; stroke-width: 1.5; rx: 6; }
    .text { font-family: 'Segoe UI', Roboto, sans-serif; font-size: 13px; fill: #1e293b; }
    .label { font-family: 'Segoe UI', Roboto, sans-serif; font-size: 11px; font-weight: bold; fill: #64748b; text-anchor: middle; }
    .arrow { stroke: #94a3b8; stroke-width: 1.5; fill: none; }
    .marker { fill: #94a3b8; }
    /* New style for imported icons to match diagram color */
    .icon-fill { fill: #64748b; }
    .icon-stroke { stroke: #64748b; stroke-width: 2; fill: none; stroke-linecap: round; stroke-linejoin: round; }
    .box-text-with-icon { font-family: 'Segoe UI', Roboto, sans-serif; font-size: 12px; fill: #1e293b; text-anchor: middle;}
  </style>

  <defs>
    <marker id="arrowhead" markerWidth="10" markerHeight="7" refX="10" refY="3.5" orient="auto">
      <polygon points="0 0, 10 3.5, 0 7" class="marker" />
    </marker>
  </defs>

  <rect x="20" y="210" width="80" height="60" class="box" />
  <path d="M40 225 h40 M40 235 h40 M40 245 h25" stroke="#cbd5e1" stroke-width="2" />
  <text x="60" y="290" class="label">Manual</text>

  <path d="M100 240 L130 240" class="arrow" marker-end="url(#arrowhead)" />

  <rect x="140" y="200" width="100" height="80" class="accent-box" />
  <g transform="translate(176, 215) scale(1.2)" class="icon-stroke">
    <path d="m14 13-8.381 8.38a1 1 0 0 1-3.001-3L11 9.999"/>
    <path d="M15.973 4.027A13 13 0 0 0 5.902 2.373c-1.398.342-1.092 2.158.277 2.601a19.9 19.9 0 0 1 5.822 3.024"/>
    <path d="M16.001 11.999a19.9 19.9 0 0 1 3.024 5.824c.444 1.369 2.26 1.676 2.603.278A13 13 0 0 0 20 8.069"/>
    <path d="M18.352 3.352a1.205 1.205 0 0 0-1.704 0l-5.296 5.296a1.205 1.205 0 0 0 0 1.704l2.296 2.296a1.205 1.205 0 0 0 1.704 0l5.296-5.296a1.205 1.205 0 0 0 0-1.704z"/>
  </g>
  <text x="190" y="300" class="label">DocLing</text>
  <text x="190" y="315" class="label" font-weight="normal">(Extraction)</text>

  <path d="M240 240 L280 150" class="arrow" marker-end="url(#arrowhead)" />
  <path d="M240 240 L280 240" class="arrow" marker-end="url(#arrowhead)" />
  <path d="M240 240 L280 330" class="arrow" marker-end="url(#arrowhead)" />

  <rect x="290" y="125" width="80" height="60" class="box" /> <g transform="translate(318, 132) scale(1.0)" class="icon-stroke">
      <path d="M14 21h1"/><path d="M14 3h1"/><path d="M19 3a2 2 0 0 1 2 2"/><path d="M21 14v1"/><path d="M21 19a2 2 0 0 1-2 2"/><path d="M21 9v1"/><path d="M3 14v1"/><path d="M3 9v1"/><path d="M5 21a2 2 0 0 1-2-2"/><path d="M5 3a2 2 0 0 0-2 2"/><path d="M7 12h10"/><path d="M7 16h6"/><path d="M7 8h8"/><path d="M9 21h1"/><path d="M9 3h1"/>
  </g>
  <text x="330" y="175" class="box-text-with-icon">Text</text>
  
  <rect x="290" y="215" width="80" height="60" class="box" /> <g transform="translate(318, 222) scale(1.0)" class="icon-stroke">
    <rect width="18" height="7" x="3" y="3" rx="1"/><rect width="7" height="7" x="3" y="14" rx="1"/><rect width="7" height="7" x="14" y="14" rx="1"/>
  </g>
  <text x="330" y="265" class="box-text-with-icon">Structure</text>

  <rect x="290" y="305" width="80" height="50" class="box" />
  <rect x="305" y="315" width="50" height="30" fill="none" stroke="#cbd5e1" />
  <circle cx="315" cy="325" r="3" fill="#cbd5e1" />
  <text x="330" y="375" class="label">Image</text>

  <path d="M370 330 L410 300" class="arrow" marker-end="url(#arrowhead)" />
  <path d="M370 330 L410 360" class="arrow" marker-end="url(#arrowhead)" />
  
  <rect x="420" y="275" width="100" height="40" class="accent-box" />
  <g transform="translate(425, 283) scale(0.8)" class="icon-stroke">
    <path d="M3 7V5a2 2 0 0 1 2-2h2"/><path d="M17 3h2a2 2 0 0 1 2 2v2"/><path d="M21 17v2a2 2 0 0 1-2 2h-2"/><path d="M7 21H5a2 2 0 0 1-2-2v-2"/><circle cx="12" cy="12" r="1"/><path d="M18.944 12.33a1 1 0 0 0 0-.66 7.5 7.5 0 0 0-13.888 0 1 1 0 0 0 0 .66 7.5 7.5 0 0 0 13.888 0"/>
  </g>
  <text x="475" y="300" class="box-text-with-icon">Vision-AI</text>
  
  <rect x="420" y="345" width="100" height="40" class="accent-box" />
  <g transform="translate(425, 353) scale(0.8)" class="icon-stroke">
      <path d="M18 11V6a2 2 0 0 0-2-2a2 2 0 0 0-2 2"/><path d="M14 10V4a2 2 0 0 0-2-2a2 2 0 0 0-2 2v2"/><path d="M10 10.5V6a2 2 0 0 0-2-2a2 2 0 0 0-2 2v8"/><path d="M18 8a2 2 0 1 1 4 0v6a8 8 0 0 1-8 8h-2c-2.8 0-4.5-.86-5.99-2.34l-3.6-3.6a2 2 0 0 1 2.83-2.82L7 15"/>
  </g>
  <text x="475" y="370" class="box-text-with-icon">by hand</text>

  <path d="M520 300 L550 245" class="arrow" marker-end="url(#arrowhead)" />
  <path d="M520 370 L550 255" class="arrow" marker-end="url(#arrowhead)" />
  <path d="M370 155 L550 230" class="arrow" marker-end="url(#arrowhead)" />
  <path d="M370 245 L550 240" class="arrow" marker-end="url(#arrowhead)" />

  <rect x="560" y="200" width="100" height="80" class="box" style="fill: #f1f5f9" />
  <g transform="translate(585, 215) scale(2.0)" class="icon-stroke" stroke-width="1.5">
    <path d="M16 5H3"/><path d="M16 12H3"/><path d="M16 19H3"/><path d="M21 5h.01"/><path d="M21 12h.01"/><path d="M21 19h.01"/>
  </g>
  <text x="610" y="300" class="label">Vector-Index</text>

  <text x="610" y="75" class="label">Libarian</text>
  <text x="610" y="90" class="label" font-weight="normal">(Transformer)</text>
  <rect x="560" y="110" width="100" height="60" class="accent-box" />
  <g transform="translate(582, 115) scale(1.7)" class="icon-fill">
      <g>
        <path d="M12.838,8.44c1.823,0,3.3-1.479,3.3-3.302c0-0.931-0.388-1.768-1.008-2.368l0.472-1.964L13.83,1.128L13.104,0l-1.935,1.29
            l-1.37-0.565L9.477,2.337l-1.37,0.806L9.54,5.162C9.551,6.973,11.022,8.44,12.838,8.44z"/>
        <polygon points="14.903,26.438 14.047,20.596 9.666,20.714 11.681,26.438 10.411,31.917 10.256,31.917 10.256,32.777 
            15.091,32.777 15.091,31.917 14.101,31.917 		"/>
        <polygon points="14.047,18.564 10.622,15.654 10.594,15.65 10.594,10.214 13.158,10.254 13.149,13.446 14.047,14.351 14.047,8.88 
            9.258,8.88 9.258,20.225 14.047,20.225 		"/>
        <polygon points="15.589,16.38 12.814,13.7 12.769,10.639 11.027,10.626 11.027,15.311 15.396,19.171 15.562,18.955 16.959,18.955 
            16.959,18.592 15.589,18.592 		"/>
        <polygon points="24.071,12.834 24.071,12.653 24.671,12.653 24.671,12.411 15.943,12.411 15.943,12.653 15.948,12.653 
            15.948,14.618 15.943,14.618 15.943,14.858 24.671,14.858 24.671,14.618 24.071,14.618 24.071,14.511 16.558,14.511 
            16.558,14.432 16.548,14.432 16.548,14.386 24.071,14.386 24.071,14.285 16.551,14.285 16.551,14.248 16.548,14.248 
            16.548,14.202 16.551,14.202 16.551,14.186 24.071,14.186 24.071,14.047 16.539,14.047 16.539,14.021 16.535,14.021 
            16.535,13.976 16.539,13.976 16.539,13.948 24.071,13.948 24.071,13.821 16.531,13.821 16.531,13.722 24.071,13.722 
            24.071,13.603 16.531,13.603 16.531,13.503 24.071,13.503 24.071,13.377 16.544,13.377 16.544,13.278 24.071,13.278 
            24.071,13.152 16.539,13.152 16.539,13.053 24.071,13.053 24.071,12.934 16.539,12.934 16.539,12.834 		"/>
        <polygon points="15.943,15.163 15.948,15.163 15.948,16.4 15.943,16.4 15.943,16.552 24.671,16.552 24.671,16.4 24.071,16.4 
            24.071,16.265 16.423,16.265 16.423,16.165 24.071,16.165 24.071,16.046 16.423,16.046 16.423,15.946 24.071,15.946 24.071,15.82 
            16.438,15.82 16.438,15.786 16.436,15.786 16.436,15.74 16.438,15.74 16.438,15.721 24.071,15.721 24.071,15.595 16.431,15.595 
            16.431,15.495 24.071,15.495 24.071,15.376 16.431,15.376 16.431,15.277 24.071,15.277 24.071,15.163 24.671,15.163 
            24.671,15.012 15.943,15.012 		"/>
        <polygon points="15.943,16.948 15.948,16.948 15.948,18.186 15.943,18.186 15.943,18.336 24.671,18.336 24.671,18.186 
            24.071,18.186 24.071,18.066 16.379,18.066 16.379,17.968 24.071,17.968 24.071,17.848 16.379,17.848 16.379,17.75 24.071,17.75 
            24.071,17.623 16.393,17.623 16.393,17.6 16.393,17.6 16.393,17.555 16.393,17.555 16.393,17.523 24.071,17.523 24.071,17.398 
            16.386,17.398 16.386,17.299 24.071,17.299 24.071,17.18 16.386,17.18 16.386,17.08 24.071,17.08 24.071,16.948 24.671,16.948 
            24.671,16.797 15.943,16.797 		"/>
        <polygon points="23.565,12.122 23.103,12.122 23.103,12.015 17.22,12.015 17.22,11.916 23.103,11.916 23.103,11.796 17.22,11.796 
            17.22,11.697 23.103,11.697 23.103,11.571 17.231,11.571 17.231,11.516 17.224,11.516 17.224,11.471 23.103,11.471 23.103,11.345 
            17.226,11.345 17.226,11.303 17.224,11.303 17.224,11.258 17.226,11.258 17.226,11.246 23.103,11.246 23.103,11.126 
            17.226,11.126 17.226,11.077 17.224,11.077 17.224,11.032 17.226,11.032 17.226,11.027 23.103,11.027 23.103,10.884 
            23.565,10.884 23.565,10.733 16.822,10.733 16.822,10.884 16.826,10.884 16.826,12.122 16.822,12.122 16.822,12.273 
            23.565,12.273 		"/>
    </g>
  </g>
  <path d="M610 170 L610 190" class="arrow" marker-end="url(#arrowhead)" />

  <rect x="710" y="200" width="100" height="80" class="accent-box" />
  <g transform="translate(725, 210) scale(2.2)" class="icon-fill">
    <g>
        <path d="M6.883,9.472c0.023,0,0.048-0.009,0.071-0.012c0.703,3.951,4.069,7.95,8.281,7.95c4.133,0,7.46-3.782,8.291-7.624
            c0.07,0.025,0.145,0.041,0.219,0.041c0.567,0,1.026-0.768,1.026-1.715c0-0.946-0.459-1.714-1.026-1.714
            c-0.06,0-0.117,0.013-0.175,0.029c-0.06-0.287-0.135-0.569-0.226-0.843c0.05,0.008,0.101,0.015,0.152,0.015
            c0.549,0,0.993-0.444,0.993-0.993c0-0.234-0.083-0.445-0.22-0.615c0.139-0.207,0.22-0.455,0.22-0.723
            c0-0.432-0.212-0.813-0.534-1.049c-0.057-0.706-0.605-1.266-1.309-1.334C22.415,0.534,22.015,0.3,21.561,0.3
            c-0.374,0-0.71,0.16-0.948,0.412c-0.129-0.061-0.271-0.099-0.426-0.099c-0.325,0-0.611,0.16-0.793,0.402
            C18.173,0.372,16.771,0,15.274,0c-1.361,0-2.644,0.312-3.784,0.853c-0.182-0.232-0.46-0.384-0.777-0.384
            c-0.153,0-0.297,0.037-0.425,0.099c-0.24-0.253-0.574-0.412-0.948-0.412c-0.457,0-0.856,0.234-1.09,0.586
            C7.549,0.811,7,1.37,6.944,2.076C6.622,2.314,6.409,2.693,6.409,3.125c0,0.268,0.08,0.516,0.219,0.723
            C6.492,4.017,6.409,4.229,6.409,4.462c0,0.5,0.37,0.909,0.851,0.979C7.186,5.648,7.125,5.859,7.067,6.073
            c-0.06-0.018-0.121-0.031-0.184-0.031c-0.567,0-1.028,0.768-1.028,1.715C5.855,8.705,6.316,9.472,6.883,9.472z M17.587,15.669
            c-0.348,0.153-0.703,0.276-1.072,0.363v-0.917h-2.254v0.978c-0.323-0.061-0.64-0.147-0.946-0.262v-3.019h4.271V15.669z
             M18.8,14.971v-3.372h-6.702v3.629c-2.408-1.521-4.069-4.582-4.069-7.253c0-0.157,0.015-0.312,0.025-0.466h0.975l0.198,2.165
            h5.181l0.238-2.599l1.466-0.031l0.243,2.63h5.179l0.148-1.628h0.832C22.488,10.554,21.001,13.392,18.8,14.971z M9.747,6.095h4.144
            l-0.253,2.737H10L9.747,6.095z M16.872,6.095h4.145l-0.252,2.736h-3.641L16.872,6.095z M22.431,6.972h-0.649l0.146-1.556
            l-0.002-0.115C22.169,5.826,22.337,6.388,22.431,6.972z M21.899,5.25l-1.311-0.021l0.006,0.021h-4.647l0.038,0.415l-1.212,0.03
            l0.041-0.444h-0.166c0,0-2.512-0.004-4.186-0.004c-0.931,0-1.311,0-1.474,0.022L8.821,5.251L8.93,6.435H8.228
            c0.749-2.987,3.62-5.219,7.047-5.219C18.229,1.216,20.773,2.877,21.899,5.25z"/>
        <rect x="14.804" y="10.001" width="1.291" height="0.608"/>
        <polygon points="19.64,18.486 15.674,29.173 12.093,18.486 5.61,19.891 6.26,31.867 25.651,31.867 26.257,19.891 		"/>
        <polygon points="13.434,18.65 14.543,21.132 16.982,21.132 18.05,18.65 		"/>
        <polygon points="15.839,26.753 17.335,21.641 14.226,21.641 		"/>
    </g>
  </g>
  <text x="760" y="300" class="label">Professor</text>
  <text x="760" y="315" class="label" font-weight="normal">(stronger LLM)</text>
  
  <path d="M660 240 L700 240" class="arrow" marker-end="url(#arrowhead)" />

  <path d="M810 240 L840 240" class="arrow" marker-end="url(#arrowhead)" />
  <circle cx="865" cy="230" r="15" fill="none" stroke="#334155" stroke-width="1.5" />
  <path d="M850 260 q15 -10 30 0" fill="none" stroke="#334155" stroke-width="1.5" />
  <text x="865" y="285" class="label">User</text>
</svg>